<svg version="1.2" baseProfile="tiny-ps" xmlns="http://www.w3.org/2000/svg" viewBox="0 0 1612 813" width="1612" height="813">
	<title>logoNAT-svg</title>
	<style>
		tspan { white-space:pre }
		.shp0 { fill: none } 
		.shp1 { fill: #ffffff } 
		.shp2 { fill: #ef3e42 } 
		.shp3 { fill: #004990 } 
	</style>
	<path id="Layer" class="shp0" d="M-90.14 -77.71L2890.31 -77.71L2890.31 903.27L-90.14 903.27L-90.14 -77.71Z" />
	<g id="Layer">
		<path id="Layer" class="shp1" d="M1599.8 802.89L9.64 802.89L9.64 9.86L1599.8 9.86L1599.8 802.89L1599.8 802.89Z" />
		<path id="Layer" class="shp2" d="M554.94 283.03L7.23 283.03L7.23 350.42L692.17 350.42L554.94 283.03L554.94 283.03Z" />
		<path id="Layer" class="shp2" d="M7.23 532.13L552.53 532.13L689.76 464.74L7.23 464.74L7.23 532.13L7.23 532.13Z" />
		<path id="Layer" class="shp2" d="M7.23 14.67L7.23 167.5L320.21 167.5L7.23 14.67L7.23 14.67Z" />
		<path id="Layer" class="shp2" d="M369.56 191.57L7.23 191.57L7.23 258.96L505.59 258.96L369.56 191.57L369.56 191.57Z" />
		<path id="Layer" class="shp2" d="M808.93 405.77L741.52 373.28L7.23 373.28L7.23 439.47L739.12 439.47L808.93 405.77L808.93 405.77Z" />
		<path id="Layer" class="shp3" d="M808.93 405.77L876.35 373.28L1609.43 373.28L1609.43 439.47L878.75 439.47L808.93 405.77L808.93 405.77Z" />
		<path id="Layer" class="shp2" d="M7.23 799.28L317.8 647.65L7.23 647.65L7.23 799.28L7.23 799.28Z" />
		<path id="Layer" class="shp2" d="M7.23 623.58L367.16 623.58L503.18 556.19L7.23 556.19L7.23 623.58L7.23 623.58Z" />
		<path id="Layer" class="shp2" d="M1602.21 368.47L1609.43 368.47L1609.43 14.67L896.81 363.65L1602.21 363.65L1602.21 368.47L1602.21 368.47Z" />
		<path id="Layer" class="shp2" d="M891.99 447.89L1609.43 799.28L1609.43 444.28L1602.21 444.28L1602.21 447.89L891.99 447.89L891.99 447.89Z" />
		<path id="Layer" fill-rule="evenodd" class="shp3" d="M1610.64 0.23C1610.64 0.23 1610.64 0.23 1610.64 812.52C1610.64 812.52 1610.64 812.52 0.01 812.52C0.01 812.52 0.01 812.52 0.01 0.23C0.01 0.23 9.64 0.23 1610.64 0.23ZM1591.38 19.48C1573.32 19.48 38.53 19.48 19.27 19.48C19.27 38.74 19.27 775.21 19.27 793.26C38.53 793.26 1573.32 793.26 1591.38 793.26C1591.38 775.21 1591.38 38.74 1591.38 19.48Z" />
		<path id="Layer" class="shp3" d="M193.81 709.02L7.23 799.28L7.23 14.67L195.02 106.13L193.81 709.02L193.81 709.02Z" />
		<path id="Layer" class="shp1" d="M51.77 49.57L61.4 78.45L91.49 78.45L67.42 96.5L77.05 125.38L51.77 108.53L26.49 125.38L36.12 96.5L12.05 78.45L42.14 78.45L51.77 49.57L51.77 49.57Z" />
		<path id="Layer" class="shp1" d="M140.85 100.11L150.48 128.99L180.57 128.99L156.5 147.04L166.13 175.92L140.85 159.08L115.57 175.92L125.2 147.04L101.12 128.99L131.22 128.99L140.85 100.11L140.85 100.11Z" />
		<path id="Layer" class="shp1" d="M51.77 148.25L61.4 177.13L91.49 177.13L67.42 195.18L77.05 224.06L51.77 207.21L26.49 224.06L36.12 195.18L12.05 177.13L42.14 177.13L51.77 148.25L51.77 148.25Z" />
		<path id="Layer" class="shp1" d="M140.85 198.79L150.48 227.67L180.57 227.67L156.5 245.72L166.13 274.6L140.85 257.75L115.57 274.6L125.2 245.72L101.12 227.67L131.22 227.67L140.85 198.79L140.85 198.79Z" />
		<path id="Layer" class="shp1" d="M51.77 251.74L61.4 280.62L91.49 280.62L67.42 298.67L77.05 327.55L51.77 310.7L26.49 327.55L36.12 298.67L12.05 280.62L42.14 280.62L51.77 251.74L51.77 251.74Z" />
		<path id="Layer" class="shp1" d="M140.85 302.28L150.48 331.16L180.57 331.16L156.5 349.21L166.13 378.09L140.85 361.25L115.57 378.09L125.2 349.21L101.12 331.16L131.22 331.16L140.85 302.28L140.85 302.28Z" />
		<path id="Layer" class="shp1" d="M51.77 355.23L61.4 384.11L91.49 384.11L67.42 402.16L77.05 431.04L51.77 414.19L26.49 431.04L36.12 402.16L12.05 384.11L42.14 384.11L51.77 355.23L51.77 355.23Z" />
		<path id="Layer" class="shp1" d="M140.85 405.77L150.48 434.65L180.57 434.65L156.5 452.7L166.13 481.58L140.85 464.74L115.57 481.58L125.2 452.7L101.12 434.65L131.22 434.65L140.85 405.77L140.85 405.77Z" />
		<path id="Layer" class="shp1" d="M51.77 458.72L61.4 487.6L91.49 487.6L67.42 505.65L77.05 534.53L51.77 517.69L26.49 534.53L36.12 505.65L12.05 487.6L42.14 487.6L51.77 458.72L51.77 458.72Z" />
		<path id="Layer" class="shp1" d="M140.85 509.26L150.48 538.14L180.57 538.14L156.5 556.19L166.13 585.08L140.85 568.23L115.57 585.08L125.2 556.19L101.12 538.14L131.22 538.14L140.85 509.26L140.85 509.26Z" />
		<path id="Layer" class="shp1" d="M51.77 562.21L61.4 591.09L91.49 591.09L67.42 609.14L77.05 638.02L51.77 621.18L26.49 638.02L36.12 609.14L12.05 591.09L42.14 591.09L51.77 562.21L51.77 562.21Z" />
		<path id="Layer" class="shp1" d="M140.85 612.75L150.48 641.63L180.57 641.63L156.5 659.69L166.13 688.57L140.85 671.72L115.57 688.57L125.2 659.69L101.12 641.63L131.22 641.63L140.85 612.75L140.85 612.75Z" />
		<path id="Layer" class="shp1" d="M51.77 665.7L61.4 694.58L91.49 694.58L67.42 712.63L77.05 741.52L51.77 724.67L26.49 741.52L36.12 712.63L12.05 694.58L42.14 694.58L51.77 665.7L51.77 665.7Z" />
	</g>
	<g id="Layer">
		<g id="Layer">
		</g>
	</g>
</svg>