<svg version="1.2" baseProfile="tiny-ps" xmlns="http://www.w3.org/2000/svg" viewBox="0 0 1558 860" width="1558" height="860">
	<title>nu-h-svg</title>
	<style>
		tspan { white-space:pre }
		.s0 { fill: #771ac9 } 
	</style>
	<path id="Layer" class="s0" d="m281.24 82.03c49.27-51.79 114.62-82.03 191.4-82.03c149.57 0 248.74 109.26 267.71 272.93c6.15 53.15 6.1 128.09 6.03 214.89c-0.01 8.9-0.01 17.93-0.01 27.07v325.16h-205.69v-240.5c0 0-0.42-205.83-1.68-244.3c-5.52-167.54-104.66-272.82-257.78-272.93c-46.2 48.83-70.95 108.54-74.6 199.83c-0.5 12.73-0.38 57.87-0.21 117.35c0.09 30.82 0.18 65.49 0.21 101.51c0.15 156.76 0 339.07 0 339.07h-205.69v-370.13c0-12.68-0.23-25.47-0.46-38.31c-0.47-25.83-0.94-51.86 0.46-77.63c2.32-42.97 9.75-85.2 29.79-124.44c45.87-89.89 139.86-147.77 240.05-147.77c3.5 0 7 0.07 10.47 0.22zm1246.03 548.39c-45.87 89.89-139.86 147.76-240.05 147.76c-3.5 0-7-0.07-10.46-0.22c-49.27 51.79-114.62 82.04-191.4 82.04c-149.57 0-248.74-109.26-267.67-272.93c-6.15-53.16-6.1-128.09-6.03-214.89c0.01-8.9 0.01-17.93 0.01-27.07v-325.16l205.54-0.19v240.5c0 110.56 0.53 206.03 1.79 244.5c5.52 167.54 104.66 272.82 257.78 272.93c46.2-48.83 70.95-108.54 74.6-199.84c0.5-12.73 0.37-57.87 0.21-117.36c-0.09-30.82-0.18-65.49-0.21-101.51c-0.15-156.76 0-339.07 0-339.07h205.69v370.13c0 12.68 0.23 25.47 0.46 38.31c0.46 25.83 0.93 51.86-0.46 77.63c-2.32 42.97-9.75 85.2-29.79 124.44z" />
</svg>