<svg version="1.2" baseProfile="tiny-ps" xmlns="http://www.w3.org/2000/svg" viewBox="0 0 1687 1246" width="1687" height="1246">
	<title>Stryker_logo-svg</title>
	<style>
		tspan { white-space:pre }
		.shp0 { fill: #000000 } 
	</style>
	<g id="Layer">
		<path id="Layer" class="shp0" d="M1509.36 1030.48C1439.18 1030.48 1393.62 1012.16 1393.06 953.66C1393.62 919.72 1393.06 509.6 1393.06 509.6L1686.03 509.6L1686.03 295.25L1393.06 295.25L1393.06 0.22L1179.22 0.22L1179.22 295.25L438.25 295.25C438.25 295.25 136.09 282.39 136.09 586.79C136.09 890.22 438.25 877.35 438.25 877.35L797.24 877.35C860.05 877.35 873.15 929.14 873.15 953.85C873.15 977.71 859.82 1030.72 797.24 1030.72L0.82 1030.72L0.82 1244.96L794.02 1244.96C794.02 1244.96 1100.98 1258.39 1100.98 953.19C1100.98 656.72 794.02 662.96 794.02 662.96L436.71 662.96C374.22 663.2 360.7 610.29 360.79 586.33C361.03 562.18 373.8 509.83 436.71 509.6C500.49 509.83 1179.55 509.6 1179.55 509.6L1179.41 953.66C1179.41 953.66 1153.67 1244.96 1459.18 1244.96L1686.03 1244.96L1686.03 1030.48" />
	</g>
</svg>