<svg version="1.2" xmlns="http://www.w3.org/2000/svg" viewBox="0 0 1541 1084" width="1541" height="1084">
	<title>TLN_BIG copy-svg</title>
	<style>
		.s0 { fill: #1f4099 } 
	</style>
	<path id="Layer" fill-rule="evenodd" class="s0" d="m1374.6 139.2c56.3-43.2 111.5-88.8 162.2-138.4-37.6 80.5-86 156.7-143.5 224.5-97.2 115.1-223 204.3-361 263.5-118.2 50.7-244.3 80.5-371.7 95.2-169.3 19-341.5 12.7-509.7-12.7-50.4-8-100.7-16.7-149.9-29.8 172.9 26.6 350.2 21.8 522.4-10.7 219.3-40.9 429.6-125.4 621.9-238 79.4-46.4 155.9-97.6 229.3-153.6zm165.8 58.8c-26.6 148.7-111.1 286.4-231.2 378.4-65.9 50.8-141.6 88.1-221 112.7-116.2 36.1-239.2 46.4-360.5 42.4-193.2-6.7-384-48.4-568.8-104.3-6.8-2.8-14.3-3.2-20.7-6.7 68.6 14.6 138.9 22.2 208.7 27.7 155.1 11.1 311.7 5.2 464.9-22.6 113.4-21 224.9-54.7 329.6-104.3 143.2-67.1 272.1-165.4 371.6-288.4 9.6-11.5 18.3-23.4 27.4-34.9zm-119.8 354.6c11.5-12.3 21-25.8 32.2-38.1-10 83.4-42.5 165.1-96.8 230.1-51.2 62.3-122.2 106.8-198.8 131-103.5 32.9-213.8 33.7-320.9 21.4-128.9-15.5-255-50.4-377.2-93.7-84.1-29.7-166.2-64.2-247.5-100.3 70.2 22.6 142 39.3 214.2 52.7 128.1 24.2 258.2 37.3 388.3 33.8 115.9-3.6 232.1-20.3 340.8-60.3 100.7-36.9 194.7-96 265.7-176.6zm-1042.4 279.3c119 50.4 242 92.4 367.7 122.6 103.1 24.2 209.4 41.7 315.7 34.9 48.4-3.2 96.4-12.3 140.9-32.5 35.7-16.3 68.2-41.3 91.2-73.4-3.6 48-23.4 94.8-56.7 130.1-27 29-63.1 48.4-101.2 58.7-48.4 13.5-99.1 13.5-148.7 8.4-61.5-6.8-121.8-22.7-180.1-42.1-104.3-35.3-203.9-82.5-300.7-134.1-43.2-23.4-86-47.2-128.1-72.6z"/>
</svg>