<svg version="1.2" baseProfile="tiny-ps" xmlns="http://www.w3.org/2000/svg" viewBox="0 0 1517 944" width="1517" height="944">
	<title>tjx-logo-mobile-svg</title>
	<style>
		tspan { white-space:pre }
		.shp0 { fill: #9c1c26 } 
	</style>
	<g id="Layer">
		<path id="Layer" class="shp0" d="M636.52 196.27L414.64 196.27L413.07 943.61L220.7 943.61L220.7 197.85L0 196.27L0 2.75L636.52 2.75L636.52 196.27ZM1189.64 165.2L1302.15 4.33L1509.08 4.33L1302.15 341.41L1516.55 676.53L1306.08 676.53L1188.85 507.01L896.95 942.03L688.45 942.03L1079.49 342.2L863.9 4.33L1077.52 4.33L1189.64 165.2ZM845.02 580.95C830.07 715.47 741.16 838.98 620 898.37C564.53 924.73 503.55 942.03 435.89 941.25L435.89 754.02C537.38 750.87 619.6 685.58 650.29 597.47C655.4 589.21 656.19 575.84 658.55 566.01L660.12 0L845.81 0L845.02 580.95Z" />
	</g>
</svg>